<?xml version="1.0" standalone="no"?>
<!DOCTYPE svg PUBLIC "-//W3C//DTD SVG 20010904//EN"
 "http://www.w3.org/TR/2001/REC-SVG-20010904/DTD/svg10.dtd">
<svg version="1.0" xmlns="http://www.w3.org/2000/svg"
 width="639.000000pt" height="450.000000pt" viewBox="0 0 639.000000 450.000000"
 preserveAspectRatio="xMidYMid meet">

<g transform="translate(0.000000,450.000000) scale(0.100000,-0.100000)"
fill="#000000" stroke="none">
<path d="M4950 4010 c-74 -25 -114 -70 -106 -118 3 -19 9 -39 14 -44 19 -19
121 -28 206 -19 119 14 136 6 136 -62 0 -32 11 -69 26 -86 2 -2 12 7 22 19 28
34 52 21 52 -29 0 -32 -6 -44 -32 -66 -18 -15 -36 -38 -40 -51 -6 -22 -5 -23
17 -8 30 19 73 83 91 131 18 50 18 146 0 186 -8 18 -37 56 -63 85 -42 46 -56
55 -108 68 -81 19 -149 17 -215 -6z"/>
<path d="M4877 3723 c-3 -5 5 -8 18 -8 13 0 21 3 18 8 -2 4 -10 7 -18 7 -8 0
-16 -3 -18 -7z"/>
<path d="M5076 3712 c-2 -4 10 -8 29 -8 19 0 31 4 29 8 -3 4 -16 8 -29 8 -13
0 -26 -4 -29 -8z"/>
<path d="M4884 3687 c-7 -20 1 -47 15 -47 17 0 22 33 7 49 -14 13 -16 13 -22
-2z"/>
<path d="M5085 3680 c-8 -12 3 -50 14 -50 16 0 31 28 25 44 -7 18 -29 21 -39
6z"/>
<path d="M4960 3553 c1 -39 99 -39 100 0 0 4 -22 7 -50 7 -27 0 -50 -3 -50 -7z"/>
<path d="M3320 3309 c-180 -19 -260 -81 -329 -254 -43 -109 -94 -285 -85 -294
11 -11 64 65 70 101 4 21 13 46 20 55 12 16 13 15 14 -14 0 -45 22 -43 75 6
64 59 200 96 484 131 203 25 413 39 633 42 l178 3 5 35 c3 19 10 50 15 68 8
29 7 33 -8 26 -31 -13 -87 -31 -114 -38 -33 -8 -38 9 -5 19 15 5 -9 11 -78 20
-55 7 -165 25 -245 39 -295 52 -498 70 -630 55z m380 -60 c118 -11 521 -66
527 -73 4 -4 -219 -23 -442 -37 -150 -9 -227 -17 -430 -45 l-50 -7 35 39 35
39 -37 -34 c-21 -19 -35 -37 -33 -41 2 -4 -37 -20 -88 -37 l-92 -29 -3 57 c-4
79 16 126 54 127 93 1 271 16 281 24 36 28 86 32 243 17z"/>
<path d="M4732 3085 c-7 -14 -12 -54 -12 -89 0 -50 -6 -75 -28 -120 -16 -31
-26 -56 -23 -56 3 0 20 9 38 20 l32 19 3 123 c2 68 3 124 2 126 0 1 -6 -9 -12
-23z"/>
<path d="M1730 3090 c-88 -18 -146 -64 -180 -142 -20 -45 -23 -68 -21 -155 l1
-102 -69 29 c-39 17 -77 30 -86 30 -19 0 -76 -115 -68 -137 3 -8 35 -28 69
-44 l64 -28 0 -130 0 -129 -36 -12 c-60 -20 -93 -105 -64 -161 8 -15 7 -23 -4
-35 -18 -18 -11 -41 15 -49 15 -5 19 -16 19 -51 l0 -44 203 0 202 -1 640 -333
c352 -183 639 -336 638 -341 -1 -5 -282 -154 -625 -332 l-623 -323 -187 0
c-181 0 -188 -1 -188 -20 0 -20 5 -20 1733 -18 1532 3 1732 5 1732 18 0 13
-34 15 -235 18 l-235 2 -625 324 c-344 178 -625 328 -624 332 0 5 288 159 640
341 l639 333 130 -1 c72 0 138 0 148 0 13 1 17 10 17 45 0 41 2 45 26 48 38 4
53 31 32 55 -12 13 -14 23 -8 33 11 17 13 64 4 96 -4 15 -14 21 -32 21 -15 1
-45 7 -68 14 -23 7 -49 9 -60 5 -34 -13 -604 -11 -665 2 -49 11 -78 10 -245
-13 -104 -14 -237 -28 -295 -32 l-106 -6 -6 94 c-15 229 -57 404 -124 517
l-37 63 -13 -26 c-8 -14 -38 -39 -68 -56 -30 -17 -55 -35 -55 -39 0 -4 30 -77
66 -161 69 -162 99 -277 89 -342 l-7 -37 -46 7 c-26 3 -191 7 -367 8 -290 2
-327 4 -397 23 -97 26 -148 53 -206 105 -57 53 -81 106 -82 177 0 51 -3 57
-33 76 -26 17 -43 20 -94 16 -36 -2 -67 -10 -74 -18 -28 -34 -131 1 -116 39 4
10 16 17 27 17 23 0 27 15 6 23 -18 7 -42 52 -67 126 -11 30 -31 68 -46 83
l-26 28 49 48 c38 38 65 54 118 72 66 22 68 23 45 35 -33 17 -97 24 -139 15z
m23 -687 c133 -58 246 -110 251 -115 6 -4 -106 -8 -247 -8 l-257 0 0 115 c0
63 2 115 5 115 4 0 115 -48 248 -107z m2957 -408 l0 -25 -1655 0 -1655 0 0 25
0 25 1655 0 1655 0 0 -25z m-351 -69 c-3 -3 -808 -421 -1170 -607 l-75 -39
-620 321 c-340 177 -621 323 -623 325 -2 2 557 4 1244 4 687 0 1246 -2 1244
-4z m-631 -1011 l598 -310 -602 -3 c-331 -1 -877 -1 -1212 0 l-609 3 601 312
c331 172 607 312 614 310 7 -1 281 -141 610 -312z"/>
<path d="M4193 3063 c9 -2 25 -2 35 0 9 3 1 5 -18 5 -19 0 -27 -2 -17 -5z"/>
<path d="M4093 3053 c9 -2 23 -2 30 0 6 3 -1 5 -18 5 -16 0 -22 -2 -12 -5z"/>
<path d="M4003 3043 c9 -2 25 -2 35 0 9 3 1 5 -18 5 -19 0 -27 -2 -17 -5z"/>
<path d="M3803 3023 c9 -2 23 -2 30 0 6 3 -1 5 -18 5 -16 0 -22 -2 -12 -5z"/>
<path d="M1896 3003 c-4 -9 -1 -21 5 -27 9 -8 10 -7 6 5 -3 9 0 22 6 28 8 8 8
11 0 11 -6 0 -14 -8 -17 -17z"/>
<path d="M1926 2991 c-9 -14 22 -34 40 -27 13 5 14 9 4 21 -14 17 -36 20 -44
6z"/>
<path d="M5228 2908 c-3 -41 -5 -43 -43 -52 -70 -15 -287 -86 -312 -101 -2 -1
4 -21 12 -46 7 -24 30 -97 50 -161 22 -74 41 -118 49 -118 10 0 2 39 -30 143
-24 78 -44 147 -44 153 0 10 36 22 90 29 29 4 136 38 175 55 95 43 89 46 130
-84 36 -115 64 -157 50 -74 -14 80 -99 297 -117 298 -4 0 -8 -19 -10 -42z"/>
<path d="M2034 2893 c-3 -10 -9 -28 -14 -40 -9 -23 -4 -33 17 -33 7 0 13 10
13 23 0 13 5 28 11 34 12 12 4 33 -12 33 -5 0 -12 -8 -15 -17z"/>
<path d="M1824 2855 c-10 -26 1 -35 13 -10 6 14 7 25 2 25 -5 0 -12 -7 -15
-15z"/>
<path d="M2148 2804 c-2 -30 1 -56 7 -58 6 -2 23 6 40 18 16 12 59 30 94 42
l64 21 -59 11 c-32 6 -78 13 -101 16 l-41 4 -4 -54z"/>
<path d="M1855 2840 c-10 -16 4 -30 31 -30 27 0 33 24 8 34 -22 8 -32 8 -39
-4z"/>
<path d="M5340 2748 c0 -9 5 -20 10 -23 13 -8 13 5 0 25 -8 13 -10 13 -10 -2z"/>
<path d="M5398 2444 c-4 -3 -2 -19 4 -35 6 -17 8 -32 5 -35 -3 -3 -74 -27
-159 -53 -84 -26 -163 -51 -174 -55 -18 -5 -24 -1 -32 23 -13 37 -53 44 -99
18 -43 -25 -34 -37 27 -37 45 0 50 -3 56 -25 7 -29 9 -30 64 -10 40 14 45 13
133 -17 51 -17 100 -38 109 -47 10 -9 24 -41 32 -71 l15 -55 0 132 c1 97 -2
132 -11 136 -7 2 1 7 19 11 47 11 57 28 43 73 -14 42 -23 56 -32 47z m-123
-164 c-11 -5 -27 -9 -35 -9 -9 0 -8 4 5 9 11 5 27 9 35 9 9 0 8 -4 -5 -9z"/>
<path d="M1478 1813 c-36 -6 -94 -72 -108 -123 -8 -30 -8 -50 0 -75 11 -32 12
-33 43 -23 49 17 65 36 83 100 9 32 29 72 44 88 35 38 21 46 -62 33z"/>
<path d="M928 1683 c-14 -3 -10 -11 21 -42 21 -21 46 -41 57 -45 12 -5 14 -10
7 -13 -16 -6 21 -110 51 -141 12 -13 43 -29 68 -37 l47 -14 10 31 c6 17 11 43
11 57 -1 65 -89 193 -117 170 -10 -9 -13 -7 -13 9 0 18 -18 32 -41 32 -5 0 -9
-8 -9 -17 -1 -17 -1 -17 -11 0 -10 16 -42 21 -81 10z"/>
<path d="M1555 1621 c-59 -14 -76 -29 -68 -59 5 -23 4 -25 -9 -15 -12 11 -17
9 -26 -13 -14 -29 -16 -103 -3 -123 17 -27 66 -2 125 64 63 71 109 92 175 80
36 -7 36 -7 17 14 -25 28 -54 35 -73 19 -14 -11 -16 -11 -10 4 9 24 -53 45
-69 23 -14 -19 -28 -20 -20 0 6 16 5 16 -39 6z"/>
<path d="M1222 1545 c0 -16 2 -22 5 -12 2 9 2 23 0 30 -3 6 -5 -1 -5 -18z"/>
<path d="M1231 1484 c0 -11 3 -14 6 -6 3 7 2 16 -1 19 -3 4 -6 -2 -5 -13z"/>
<path d="M968 1398 c-16 -5 -28 -13 -28 -18 0 -4 -8 -6 -17 -4 -19 5 -83 -30
-83 -44 0 -5 22 -7 50 -4 68 6 101 -10 163 -79 60 -67 110 -91 127 -59 6 10
11 27 11 37 1 10 7 -4 14 -32 7 -27 13 -41 14 -30 0 28 -37 195 -38 170 -1
-17 -3 -18 -11 -5 -9 13 -11 13 -21 0 -9 -12 -10 -11 -6 7 6 29 -18 49 -71 61
-36 9 -42 8 -42 -7 -1 -14 -2 -14 -11 2 -11 19 -13 19 -51 5z"/>
<path d="M1419 1363 c-13 -16 -12 -17 4 -4 9 7 17 15 17 17 0 8 -8 3 -21 -13z"/>
<path d="M1535 1304 c-8 -9 -15 -11 -15 -5 0 19 -34 11 -75 -17 -22 -15 -55
-52 -74 -82 -18 -30 -31 -47 -27 -37 3 11 8 31 11 45 4 19 1 17 -9 -8 -16 -42
-31 -137 -17 -105 8 17 10 16 10 -12 1 -51 10 -63 45 -63 37 0 89 30 109 62 8
13 23 48 33 78 13 37 33 69 63 97 l43 42 -28 6 c-16 4 -34 8 -41 10 -7 2 -19
-3 -28 -11z"/>
<path d="M1253 1155 c0 -33 2 -45 4 -27 2 18 2 45 0 60 -2 15 -4 0 -4 -33z"/>
<path d="M1303 1135 c0 -27 2 -38 4 -22 2 15 2 37 0 50 -2 12 -4 0 -4 -28z"/>
<path d="M1226 1060 c2 -47 7 -110 12 -140 6 -50 9 -55 34 -58 24 -3 27 1 32
30 7 47 15 178 9 148 -5 -23 -6 -24 -14 -5 -5 13 -8 -6 -10 -55 l-2 -75 -13
90 -13 90 4 -85 c2 -53 0 -77 -5 -65 -5 11 -9 36 -9 55 -1 27 -4 32 -12 20 -7
-11 -8 -6 -4 20 3 19 2 53 -3 75 -7 32 -9 23 -6 -45z"/>
<path d="M1201 1090 c0 -8 4 -24 9 -35 5 -13 9 -14 9 -5 0 8 -4 24 -9 35 -5
13 -9 14 -9 5z"/>
<path d="M4766 783 c-51 -2 -96 -9 -104 -16 -8 -7 -42 -25 -75 -42 -51 -25
-62 -34 -62 -55 l0 -25 160 0 c88 0 168 4 178 8 12 6 17 19 17 50 0 47 -9 88
-19 85 -3 -1 -46 -4 -95 -5z"/>
<path d="M5161 743 c-15 -54 -13 -88 5 -104 23 -19 174 -24 198 -6 22 16 24
58 6 112 l-12 35 -93 0 -94 0 -10 -37z"/>
</g>
</svg>
